# Blender 5.1.2
# www.blender.org
mtllib Lantern.mtl
o Lantern
v 0.200000 0.050000 -0.200000
v 0.200000 0.050000 -0.150000
v 0.200000 0.100000 -0.200000
v 0.200000 0.350000 -0.040909
v 0.200000 0.285714 -0.000000
v 0.200000 0.350000 0.040909
v 0.200000 0.050000 0.150000
v 0.200000 0.100000 0.200000
v 0.200000 0.050000 0.200000
v 0.200000 0.600000 0.200000
v 0.200000 0.650000 0.150000
v 0.200000 0.414286 0.000000
v 0.200000 0.650000 -0.150000
v 0.200000 0.600000 -0.200000
v 0.200000 0.650000 -0.200000
v 0.200000 0.650000 0.200000
v -0.150000 0.650000 -0.200000
v 0.000000 0.414286 -0.200000
v -0.150000 0.650000 -0.250000
v 0.000000 0.414286 -0.250000
v 0.150000 0.650000 -0.200000
v 0.150000 0.650000 -0.250000
v 0.150000 0.050000 -0.200000
v 0.000000 0.285714 -0.200000
v 0.150000 0.050000 -0.250000
v 0.000000 0.285714 -0.250000
v -0.200000 0.414286 0.000000
v -0.250000 0.414286 0.000000
v -0.200000 0.650000 0.150000
v -0.250000 0.650000 0.150000
v 0.150000 0.650000 0.200000
v 0.000000 0.414286 0.200000
v 0.150000 0.650000 0.250000
v 0.000000 0.414286 0.250000
v 0.250000 0.285714 -0.000000
v 0.250000 0.050000 -0.150000
v 0.250000 0.050000 0.150000
v 0.000000 0.285714 0.200000
v 0.150000 0.050000 0.200000
v 0.000000 0.285714 0.250000
v 0.150000 0.050000 0.250000
v -0.150000 0.050000 -0.250000
v -0.150000 0.050000 -0.200000
v -0.200000 0.050000 -0.200000
v -0.200000 0.050000 -0.150000
v -0.250000 0.050000 -0.150000
v -0.200000 0.050000 0.150000
v -0.250000 0.050000 0.150000
v -0.200000 0.050000 0.200000
v -0.150000 0.050000 0.200000
v -0.150000 0.050000 0.250000
v -0.200000 0.350000 0.040909
v -0.200000 0.600000 0.200000
v -0.250000 0.350000 0.040909
v -0.250000 0.600000 0.200000
v 0.250000 0.600000 0.200000
v 0.250000 0.350000 0.040909
v -0.200000 0.100000 0.200000
v -0.250000 0.100000 0.200000
v 0.250000 0.100000 0.200000
v -0.040909 0.350000 0.200000
v 0.040909 0.350000 0.200000
v -0.150000 0.650000 0.200000
v -0.200000 0.650000 0.200000
v -0.200000 0.650000 -0.150000
v -0.250000 0.650000 -0.150000
v 0.250000 0.414286 0.000000
v 0.250000 0.650000 -0.150000
v 0.250000 0.650000 0.150000
v -0.200000 0.285714 -0.000000
v -0.250000 0.285714 -0.000000
v -0.200000 0.350000 -0.040909
v -0.200000 0.100000 -0.200000
v -0.250000 0.350000 -0.040909
v -0.250000 0.100000 -0.200000
v 0.250000 0.100000 -0.200000
v 0.250000 0.350000 -0.040909
v -0.200000 0.600000 -0.200000
v -0.250000 0.600000 -0.200000
v 0.250000 0.600000 -0.200000
v -0.040909 0.350000 -0.200000
v 0.040909 0.350000 -0.200000
v -0.200000 0.650000 -0.200000
v -0.150000 0.650000 0.250000
v 0.200000 0.100000 -0.250000
v 0.200000 0.600000 -0.250000
v 0.200000 0.600000 0.250000
v 0.200000 0.100000 0.250000
v 0.040909 0.350000 -0.250000
v 0.040909 0.350000 0.250000
v -0.040909 0.350000 -0.250000
v -0.200000 0.600000 -0.250000
v -0.200000 0.100000 -0.250000
v -0.200000 0.100000 0.250000
v -0.200000 0.600000 0.250000
v -0.040909 0.350000 0.250000
v 0.000000 0.950000 0.350000
v 0.350000 0.700000 0.350000
v 0.000000 0.950000 -0.350000
v 0.350000 0.700000 -0.350000
v -0.350000 0.700000 0.350000
v -0.350000 0.700000 -0.350000
v 0.250000 0.700000 0.250000
v -0.250000 0.700000 0.250000
v -0.250000 0.700000 -0.250000
v 0.250000 0.700000 -0.250000
v -0.250000 0.000000 -0.250000
v -0.250000 0.000000 0.250000
v 0.250000 0.000000 -0.250000
v 0.250000 0.000000 0.250000
vn -1.0000 -0.0000 -0.0000
vn 0.8437 0.5369 -0.0000
vn -0.8437 0.5369 -0.0000
vn -0.8437 -0.5369 -0.0000
vn -0.0000 0.5369 -0.8437
vn -0.0000 -0.5369 0.8437
vn -0.0000 -0.5369 -0.8437
vn -0.0000 1.0000 -0.0000
vn -0.0000 -0.0000 -1.0000
vn -0.0000 0.5369 0.8437
vn -0.0000 -0.0000 1.0000
vn -0.0000 -1.0000 -0.0000
vn 0.8437 -0.5369 -0.0000
vn 1.0000 -0.0000 -0.0000
vn 0.5812 0.8137 -0.0000
vn -0.5812 0.8137 -0.0000
s 0
f 1//1 2//1 3//1
f 3//1 2//1 4//1
f 4//1 2//1 5//1
f 4//1 5//1 6//1
f 6//1 5//1 7//1
f 6//1 7//1 8//1
f 8//1 7//1 9//1
f 10//1 11//1 6//1
f 6//1 11//1 12//1
f 6//1 12//1 4//1
f 4//1 12//1 13//1
f 4//1 13//1 14//1
f 14//1 13//1 15//1
f 10//1 16//1 11//1
f 17//2 18//2 19//2
f 19//2 18//2 20//2
f 18//3 21//3 20//3
f 20//3 21//3 22//3
f 23//4 24//4 25//4
f 25//4 24//4 26//4
f 27//5 28//5 29//5
f 29//5 28//5 30//5
f 31//3 32//3 33//3
f 33//3 32//3 34//3
f 5//6 2//6 35//6
f 35//6 2//6 36//6
f 7//7 5//7 37//7
f 37//7 5//7 35//7
f 38//4 39//4 40//4
f 40//4 39//4 41//4
f 25//8 42//8 23//8
f 23//8 42//8 43//8
f 23//8 43//8 2//8
f 2//8 43//8 7//8
f 2//8 7//8 37//8
f 44//8 45//8 43//8
f 43//8 45//8 7//8
f 46//8 47//8 45//8
f 45//8 47//8 39//8
f 45//8 39//8 7//8
f 7//8 39//8 9//8
f 46//8 48//8 47//8
f 49//8 50//8 47//8
f 47//8 50//8 39//8
f 51//8 41//8 50//8
f 50//8 41//8 39//8
f 37//8 36//8 2//8
f 2//8 1//8 23//8
f 52//6 53//6 54//6
f 54//6 53//6 55//6
f 10//6 6//6 56//6
f 56//6 6//6 57//6
f 53//9 58//9 55//9
f 55//9 58//9 59//9
f 8//9 10//9 60//9
f 60//9 10//9 56//9
f 49//9 58//9 50//9
f 50//9 58//9 61//9
f 50//9 61//9 38//9
f 38//9 61//9 62//9
f 38//9 62//9 39//9
f 39//9 62//9 8//9
f 39//9 8//9 9//9
f 53//9 63//9 61//9
f 61//9 63//9 32//9
f 61//9 32//9 62//9
f 62//9 32//9 31//9
f 62//9 31//9 10//9
f 10//9 31//9 16//9
f 53//9 64//9 63//9
f 58//10 52//10 59//10
f 59//10 52//10 54//10
f 6//10 8//10 57//10
f 57//10 8//10 60//10
f 27//10 65//10 28//10
f 28//10 65//10 66//10
f 12//10 67//10 13//10
f 13//10 67//10 68//10
f 12//5 11//5 67//5
f 67//5 11//5 69//5
f 45//6 70//6 46//6
f 46//6 70//6 71//6
f 70//7 47//7 71//7
f 71//7 47//7 48//7
f 72//5 73//5 74//5
f 74//5 73//5 75//5
f 3//5 4//5 76//5
f 76//5 4//5 77//5
f 73//11 78//11 75//11
f 75//11 78//11 79//11
f 14//11 3//11 80//11
f 80//11 3//11 76//11
f 44//11 43//11 73//11
f 73//11 43//11 81//11
f 81//11 43//11 24//11
f 81//11 24//11 82//11
f 82//11 24//11 23//11
f 82//11 23//11 3//11
f 3//11 23//11 1//11
f 14//11 21//11 82//11
f 82//11 21//11 18//11
f 82//11 18//11 81//11
f 81//11 18//11 17//11
f 81//11 17//11 78//11
f 78//11 17//11 83//11
f 14//11 15//11 21//11
f 78//7 72//7 79//7
f 79//7 72//7 74//7
f 4//7 14//7 77//7
f 77//7 14//7 80//7
f 19//12 22//12 17//12
f 17//12 22//12 21//12
f 17//12 21//12 65//12
f 65//12 21//12 29//12
f 65//12 29//12 66//12
f 66//12 29//12 30//12
f 15//12 13//12 21//12
f 21//12 13//12 29//12
f 68//12 11//12 13//12
f 13//12 11//12 63//12
f 13//12 63//12 29//12
f 29//12 63//12 64//12
f 68//12 69//12 11//12
f 16//12 31//12 11//12
f 11//12 31//12 63//12
f 33//12 84//12 31//12
f 31//12 84//12 63//12
f 65//12 83//12 17//12
f 3//1 14//1 85//1
f 85//1 14//1 86//1
f 10//1 8//1 87//1
f 87//1 8//1 88//1
f 14//13 82//13 86//13
f 86//13 82//13 89//13
f 62//13 10//13 90//13
f 90//13 10//13 87//13
f 82//2 3//2 89//2
f 89//2 3//2 85//2
f 24//13 43//13 26//13
f 26//13 43//13 42//13
f 81//4 78//4 91//4
f 91//4 78//4 92//4
f 78//14 73//14 92//14
f 92//14 73//14 93//14
f 44//14 73//14 45//14
f 45//14 73//14 72//14
f 45//14 72//14 70//14
f 70//14 72//14 52//14
f 70//14 52//14 47//14
f 47//14 52//14 58//14
f 47//14 58//14 49//14
f 78//14 65//14 72//14
f 72//14 65//14 27//14
f 72//14 27//14 52//14
f 52//14 27//14 29//14
f 52//14 29//14 53//14
f 53//14 29//14 64//14
f 78//14 83//14 65//14
f 58//14 53//14 94//14
f 94//14 53//14 95//14
f 73//3 81//3 93//3
f 93//3 81//3 91//3
f 61//3 58//3 96//3
f 96//3 58//3 94//3
f 32//2 63//2 34//2
f 34//2 63//2 84//2
f 8//2 62//2 88//2
f 88//2 62//2 90//2
f 50//13 38//13 51//13
f 51//13 38//13 40//13
f 53//4 61//4 95//4
f 95//4 61//4 96//4
f 97//15 98//15 99//15
f 99//15 98//15 100//15
f 101//16 97//16 102//16
f 102//16 97//16 99//16
f 98//11 97//11 101//11
f 100//12 98//12 103//12
f 103//12 98//12 101//12
f 103//12 101//12 104//12
f 104//12 101//12 102//12
f 104//12 102//12 105//12
f 105//12 102//12 100//12
f 105//12 100//12 106//12
f 106//12 100//12 103//12
f 99//9 100//9 102//9
f 55//1 28//1 54//1
f 54//1 28//1 74//1
f 54//1 74//1 71//1
f 71//1 74//1 75//1
f 71//1 75//1 46//1
f 46//1 75//1 107//1
f 46//1 107//1 108//1
f 59//1 104//1 55//1
f 55//1 104//1 30//1
f 55//1 30//1 28//1
f 54//1 71//1 59//1
f 59//1 71//1 48//1
f 59//1 48//1 108//1
f 108//1 48//1 46//1
f 74//1 28//1 79//1
f 79//1 28//1 66//1
f 79//1 66//1 105//1
f 105//1 66//1 30//1
f 105//1 30//1 104//1
f 107//1 75//1 105//1
f 105//1 75//1 79//1
f 108//1 104//1 59//1
f 85//9 26//9 89//9
f 89//9 26//9 91//9
f 89//9 91//9 20//9
f 20//9 91//9 92//9
f 20//9 92//9 19//9
f 19//9 92//9 105//9
f 19//9 105//9 106//9
f 86//9 106//9 85//9
f 85//9 106//9 109//9
f 85//9 109//9 25//9
f 25//9 109//9 107//9
f 25//9 107//9 42//9
f 42//9 107//9 93//9
f 42//9 93//9 26//9
f 26//9 93//9 91//9
f 89//9 20//9 86//9
f 86//9 20//9 22//9
f 86//9 22//9 106//9
f 106//9 22//9 19//9
f 85//9 25//9 26//9
f 105//9 92//9 93//9
f 107//9 105//9 93//9
f 57//14 67//14 56//14
f 56//14 67//14 69//14
f 56//14 69//14 103//14
f 103//14 69//14 68//14
f 103//14 68//14 106//14
f 106//14 68//14 80//14
f 106//14 80//14 76//14
f 60//14 35//14 57//14
f 57//14 35//14 77//14
f 57//14 77//14 67//14
f 67//14 77//14 80//14
f 67//14 80//14 68//14
f 56//14 103//14 60//14
f 60//14 103//14 110//14
f 60//14 110//14 37//14
f 37//14 110//14 109//14
f 37//14 109//14 36//14
f 36//14 109//14 76//14
f 36//14 76//14 35//14
f 35//14 76//14 77//14
f 37//14 35//14 60//14
f 109//14 106//14 76//14
f 90//11 40//11 88//11
f 88//11 40//11 41//11
f 88//11 41//11 110//11
f 110//11 41//11 51//11
f 110//11 51//11 108//11
f 108//11 51//11 94//11
f 108//11 94//11 104//11
f 104//11 94//11 95//11
f 104//11 95//11 84//11
f 84//11 95//11 34//11
f 34//11 95//11 96//11
f 34//11 96//11 90//11
f 90//11 96//11 40//11
f 34//11 90//11 87//11
f 88//11 103//11 87//11
f 87//11 103//11 33//11
f 87//11 33//11 34//11
f 51//11 40//11 94//11
f 94//11 40//11 96//11
f 104//11 84//11 33//11
f 110//11 103//11 88//11
f 103//11 104//11 33//11
f 110//12 108//12 109//12
f 109//12 108//12 107//12
